<svg viewBox="186.2267 404.1923 884.5866 218.6045" width="5000" height="1235.630858527588" xmlns="http://www.w3.org/2000/svg" xmlns:xlink="http://www.w3.org/1999/xlink" preserveAspectRatio="none"><defs></defs><style>.aD6z1nYkhcolor {fill:#161616;fill-opacity:1;}.aIptOCySncolors-0 {fill:#FFCC57;fill-opacity:1;}.aIptOCySncolors-1 {fill:#EF802F;fill-opacity:1;}.aIptOCySncolors-2 {fill:#DB5192;fill-opacity:1;}.aIptOCySncolors-3 {fill:#161616;fill-opacity:1;}.aIptOCySncolors-4 {fill:#F7F7F7;fill-opacity:1;}.aIptOCySncolors-5 {fill:#EDF577;fill-opacity:1;}.aIptOCySncolors-6 {fill:#C4C4C4;fill-opacity:1;}.aIptOCySncolors-7 {fill:#555555;fill-opacity:1;}.icon3-str {stroke:#DB5192;stroke-opacity:1;}</style><g opacity="1" transform="rotate(0 186.2267 404.1923)">
<svg width="229.5467" height="218.6045" x="186.2267" y="404.1923" version="1.1" preserveAspectRatio="none" viewBox="2.5454180240631104 4.757350444793701 94.93457794189452 90.40916442871094">
  <g transform="matrix(1 0 0 1 0 0)" class="aIptOCySncolors-0"><title>Artboard 13</title><path d="M2.67,54.62a9.18,9.18,0,0,0,.77,5.46A9.06,9.06,0,0,0,7,64a8.79,8.79,0,0,0,3,1.08A9,9,0,0,0,9.57,67a9.32,9.32,0,0,0,1.52,6,9.14,9.14,0,0,0,4.72,3.58,9,9,0,0,0,5.56,0h0a8.83,8.83,0,0,0,.71,2.22,9,9,0,0,0,8.4,5.15,9.32,9.32,0,0,0,2-.33,9.47,9.47,0,0,0,.29,1.35,9.16,9.16,0,0,0,2.48,4A9.05,9.05,0,0,0,39.13,91a8.54,8.54,0,0,0,7.23-1.43,8.3,8.3,0,0,0,1.16-1.09c.32-.37.5-.63.74-.94.44-.59.84-1.13,1.17-1.63.1-.14-.28-.7-.84-1.24s-1-.79-1.1-.7c-.5.34-1,.73-1.63,1.18-.28.21-.62.5-.88.67a5.78,5.78,0,0,1-.77.44,4.81,4.81,0,0,1-3.71.13,4.3,4.3,0,0,1-2.57-2.92A4.09,4.09,0,0,1,39,79.63L41.4,77.2a4,4,0,0,1,1.78-1A4.29,4.29,0,0,1,47,77.1a4.79,4.79,0,0,1,1.64,3.35,5.81,5.81,0,0,1-.76,3.17c-.06.12.33.66.87,1.18s1,.74,1.1.63a7.4,7.4,0,0,0,2.68-4.66,8.5,8.5,0,0,0-2.14-7,9,9,0,0,0-3.66-2.4,9.09,9.09,0,0,0-3.09-.47c0-.25.07-.51.09-.78a8.53,8.53,0,0,0-.76-4,8.65,8.65,0,0,0-8.66-5,8.11,8.11,0,0,0,0-1.19A8.61,8.61,0,0,0,29,52.46,8.88,8.88,0,0,0,25,51.83c0-.14,0-.27,0-.41a8.53,8.53,0,0,0-.76-4,8.79,8.79,0,0,0-7.64-5,9.11,9.11,0,0,0-5.12,1.34,9,9,0,0,0-1.12.81l-.2.17C9,42.6,6.44,40.51,4.54,40.53a10.09,10.09,0,0,0-1.08,1,8.36,8.36,0,0,0-.86.94c0,1.89,2,4.44,4.15,5.65l-1.5,1.48A9.28,9.28,0,0,0,2.67,54.62ZM37.45,66.68a4.78,4.78,0,0,1,1.63,1.49,5,5,0,0,1,.74,2,5.11,5.11,0,0,1,0,1.64,8.86,8.86,0,0,0-2.05,1.39c-.35.31-.51.48-.73.69l-.63.62-1.26,1.25a9.61,9.61,0,0,0-1.81,2.62,4.05,4.05,0,0,1-.62.34,4.55,4.55,0,0,1-2.16.38A4.21,4.21,0,0,1,27,76.53a4,4,0,0,1,.85-4.37l2.84-2.87L32,67.85l.35-.36.23-.22a3.9,3.9,0,0,1,.45-.37A4.23,4.23,0,0,1,37.45,66.68ZM27.31,56.95a4.63,4.63,0,0,1,3.15,3.42,5.14,5.14,0,0,1,.07,1.89c-.11.06-.23.11-.33.17a9,9,0,0,0-1.11.82l-.5.45-.36.35-1.44,1.4-2.88,2.84a9.35,9.35,0,0,0-1.78,2.51l-.17.15-.26.2a4.87,4.87,0,0,1-.52.34,5,5,0,0,1-1.17.44A4.2,4.2,0,0,1,15.55,70,4.11,4.11,0,0,1,15,67.5a4.06,4.06,0,0,1,1.13-2.34c2.14-2.14,4.26-4.31,6.29-6.42l.38-.4c.12-.13.27-.28.33-.34a4,4,0,0,1,1.64-1A4.27,4.27,0,0,1,27.31,56.95ZM12,50.62l1.39-1.43.35-.36.23-.22a3.9,3.9,0,0,1,.45-.37A4.23,4.23,0,0,1,18.79,48a4.77,4.77,0,0,1,1.63,1.49,4.87,4.87,0,0,1,.72,3.5l-.42.24a9.4,9.4,0,0,0-1.2.93c-.21.19-.32.29-.46.42l-.4.38c-1.79,1.72-3.61,3.51-5.43,5.31a5,5,0,0,1-1.39.12,4.21,4.21,0,0,1-3.56-2.55,4,4,0,0,1,.85-4.37Z"></path><path d="M95.51,39.4c-2.31.13-5.76,3.24-6.91,5.88l-5.72-6-7.4-7.62-3.87-4-2-2c-.3-.32-.73-.72-1.13-1.09a15.55,15.55,0,0,0-1.34-1.07A11.26,11.26,0,0,0,63.9,21.9a9.6,9.6,0,0,0-4-.4,11.11,11.11,0,0,0-3.67,1.16,15.73,15.73,0,0,0-2.92,2c-.41.37-.85.77-1.21,1.13l-1,1L49,28.89,44.87,33l-2.08,2.08-.26.26-.22.21a3.11,3.11,0,0,1-.33.28,3.31,3.31,0,0,1-.73.44,3.9,3.9,0,0,1-4.75-5.84,23.41,23.41,0,0,1,1.68-1.78l2-2,3.87-4,7.4-7.62.44-.46.4-.4c.26-.27.55-.51.82-.76a18.78,18.78,0,0,1,1.76-1.35,19.16,19.16,0,0,1,3.81-2,19.36,19.36,0,0,1,4-1,18,18,0,0,1,2-.2l2.11-.07c5.63-.17,10.51-.37,14.42-.61.56,0,1-.7.94-1.47a1.22,1.22,0,0,0-.94-1.28c-3.9-.23-8.79-.43-14.42-.61-.72,0-1.39-.05-2.17-.06a21.4,21.4,0,0,0-2.43.1A22.89,22.89,0,0,0,50.07,9.86l-.27.23a11,11,0,0,0-2.31-2.35A11.43,11.43,0,0,0,41.81,5.5a11.25,11.25,0,0,0-3.61.27,11.77,11.77,0,0,0-3.4,1.51,15.33,15.33,0,0,0-2.54,2.24L32,9.78A31.88,31.88,0,0,0,26.78,6c-.1,0-.62.36-1.16.92s-.82.94-.78,1a40.84,40.84,0,0,0,5.55,7.29,2.46,2.46,0,0,0,3.43.22l.25-.22c1.33-1.14,2.82-2.74,3.78-3.39A8.36,8.36,0,0,1,39.64,11a8,8,0,0,1,1.91-.32,10.26,10.26,0,0,1,3.82.73c.74.28,1.42.6,2,.9l-7,6.81-4,3.87-2,2a24.18,24.18,0,0,0-2.22,2.34,9.3,9.3,0,0,0,11.31,14,8.74,8.74,0,0,0,1.78-1.07,8.48,8.48,0,0,0,.79-.67l.31-.3.26-.26,2.08-2.08,4.15-4.16L55,30.69l1-1,.92-.87a7.48,7.48,0,0,1,3.67-1.92,5,5,0,0,1,3.53,1.06,10.36,10.36,0,0,1,.89.69c.29.27.56.5.92.86l2,2,4,3.87,7.62,7.4,7.13,6.85,1.69,1.61.83.79a5.52,5.52,0,0,1,.54.59,4.55,4.55,0,0,1,1,2.8,4.86,4.86,0,0,1-3,4.49,5,5,0,0,1-2.46.38l-2.16-2a99,99,0,0,0-8.69-7.12c-.15-.11-.71.26-1.23.8s-.75,1-.65,1.1a98.92,98.92,0,0,0,7.2,8.61l2.43,2.62a24.22,24.22,0,0,1,2.15,2.4,4,4,0,0,1-4.12,6,4.15,4.15,0,0,1-1.95-.93A11.1,11.1,0,0,0,76.62,70C75.44,69,74.27,68,73.16,67c-1.43-1.18-2.77-2.21-3.94-3-.89-.69-1.71-1.3-2.43-1.8-.16-.11-.73.27-1.26.83s-.77,1-.67,1.13c.48.68,1.08,1.44,1.75,2.27.84,1.18,1.93,2.54,3.19,4,.95,1.09,2,2.22,3.08,3.37A5.58,5.58,0,0,1,74,75.16a4.17,4.17,0,0,1,.47,1.35,4.24,4.24,0,0,1-.5,2.77,4.59,4.59,0,0,1-2.05,1.85,5.27,5.27,0,0,1-2.6.42l-.45-.07a8.63,8.63,0,0,0-.66-.94,6.31,6.31,0,0,0-.58-.64l-.3-.3-.23-.2-.91-.79A47.24,47.24,0,0,0,60,73.94c-.11-.07-.64.33-1.17.87s-.78.92-.72,1A47.23,47.23,0,0,0,62.78,82l.79.91.2.23.12.16a2.22,2.22,0,0,1,.22.32A4.19,4.19,0,0,1,64.68,85a4.14,4.14,0,0,1-.56,3,4.09,4.09,0,0,1-2.49,1.78,4.4,4.4,0,0,1-3-.35,5.71,5.71,0,0,1-.63-.4c-.22-.15-.56-.46-.82-.67-.56-.46-1.11-.89-1.63-1.29a29.41,29.41,0,0,0-2.77-1.92c-.11-.07-.65.33-1.19.89s-.81,1-.75,1.06a29.4,29.4,0,0,0,1.92,2.78c.4.52.83,1.06,1.29,1.63.25.3.42.53.76.9A9.17,9.17,0,0,0,56,93.48a8.83,8.83,0,0,0,6.62,1.57,9,9,0,0,0,7.54-9.17,8.34,8.34,0,0,0,3.16-.16,8.84,8.84,0,0,0,5.09-3.54A9,9,0,0,0,79.92,78a9.19,9.19,0,0,0,8.81-14.31c-.14-.2-.3-.41-.47-.61.2,0,.4-.09.6-.15a8.2,8.2,0,0,0,3.87-2.68,8.36,8.36,0,0,0,1.84-4.82A8.5,8.5,0,0,0,93,50.1,9.69,9.69,0,0,0,92.13,49l-.65-.68c2.66-1.11,5.84-4.61,6-7a8.77,8.77,0,0,0-1-1.08A7.27,7.27,0,0,0,95.51,39.4Z"></path></g>
</svg>
</g><g opacity="1" transform="rotate(0 443.1868 469.7615)">
<svg width="627.6265" height="87.4662" x="443.1868" y="469.7615" version="1.1" preserveAspectRatio="none" viewBox="0.7813 -28.0078 200.9726 28.0078">
  <g transform="matrix(1 0 0 1 0 0)" class="aD6z1nYkhcolor"><path id="id-D6z1nYkh6" d="M28.26-28.01L28.26-22.93L17.07-22.93L17.07 0L11.99 0L11.99-22.93L0.78-22.93L0.78-28.01L28.26-28.01Z M62.78-21.84L62.78-18.59Q62.78-16.86 62.35-15.49Q61.92-14.12 61.19-13.08Q60.46-12.03 59.50-11.29Q58.54-10.55 57.50-10.07Q56.45-9.59 55.39-9.38Q54.32-9.16 53.39-9.16L53.39-9.16L63.99 0L56.14 0L45.55-9.16L41.90-9.16L41.90-14.24L53.39-14.24Q54.34-14.32 55.13-14.64Q55.92-14.96 56.50-15.51Q57.08-16.05 57.39-16.83Q57.70-17.60 57.70-18.59L57.70-18.59L57.70-21.80Q57.70-22.23 57.59-22.45Q57.49-22.68 57.32-22.78Q57.16-22.89 56.97-22.91Q56.78-22.93 56.63-22.93L56.63-22.93L39.87-22.93L39.87 0L34.79 0L34.79-25.45Q34.79-25.98 34.99-26.45Q35.18-26.91 35.52-27.27Q35.87-27.62 36.34-27.81Q36.80-28.01 37.35-28.01L37.35-28.01L56.63-28.01Q58.33-28.01 59.50-27.39Q60.67-26.78 61.40-25.85Q62.14-24.92 62.46-23.85Q62.78-22.77 62.78-21.84L62.78-21.84Z M98.16-25.45L98.16 0L93.08 0L93.08-6.88L75.23-6.88L75.23 0L70.15 0L70.15-14.00Q70.15-17.07 71.21-19.65Q72.26-22.23 74.14-24.08Q76.01-25.94 78.57-26.97Q81.13-28.01 84.15-28.01L84.15-28.01L95.60-28.01Q96.13-28.01 96.60-27.81Q97.06-27.62 97.42-27.27Q97.77-26.91 97.96-26.45Q98.16-25.98 98.16-25.45L98.16-25.45ZM75.23-14.00L75.23-11.95L93.08-11.95L93.08-22.93L84.15-22.93Q83.92-22.93 83.17-22.86Q82.42-22.79 81.43-22.52Q80.44-22.25 79.35-21.68Q78.26-21.11 77.34-20.12Q76.42-19.12 75.82-17.63Q75.23-16.13 75.23-14.00L75.23-14.00Z M131.94-5.08L131.94 0L113.61 0Q112.91 0 112.10-0.17Q111.29-0.33 110.50-0.68Q109.71-1.04 108.99-1.59Q108.26-2.15 107.71-2.94Q107.15-3.73 106.82-4.78Q106.49-5.82 106.49-7.13L106.49-7.13L106.49-20.88Q106.49-21.58 106.65-22.39Q106.82-23.20 107.17-23.99Q107.52-24.79 108.09-25.51Q108.65-26.23 109.44-26.79Q110.24-27.34 111.27-27.68Q112.31-28.01 113.61-28.01L113.61-28.01L131.94-28.01L131.94-22.93L113.61-22.93Q112.62-22.93 112.09-22.40Q111.56-21.88 111.56-20.84L111.56-20.84L111.56-7.13Q111.56-6.15 112.10-5.62Q112.64-5.08 113.61-5.08L113.61-5.08L131.94-5.08Z M162.57-16.56L162.57-11.45L146.53-11.45L146.53-16.56L162.57-16.56ZM164.85-5.08L164.85 0L146.53 0Q145.48 0 144.23-0.37Q142.98-0.74 141.91-1.59Q140.85-2.44 140.14-3.80Q139.42-5.16 139.42-7.13L139.42-7.13L139.42-25.45Q139.42-25.98 139.62-26.45Q139.81-26.91 140.16-27.27Q140.50-27.62 140.97-27.81Q141.43-28.01 141.98-28.01L141.98-28.01L164.85-28.01L164.85-22.93L144.50-22.93L144.50-7.13Q144.50-6.13 145.03-5.61Q145.56-5.08 146.57-5.08L146.57-5.08L164.85-5.08Z M200.54-21.84L200.54-18.59Q200.54-16.86 200.11-15.49Q199.68-14.12 198.95-13.08Q198.22-12.03 197.26-11.29Q196.30-10.55 195.26-10.07Q194.21-9.59 193.15-9.38Q192.09-9.16 191.15-9.16L191.15-9.16L201.75 0L193.90 0L183.32-9.16L179.66-9.16L179.66-14.24L191.15-14.24Q192.11-14.32 192.90-14.64Q193.69-14.96 194.26-15.51Q194.84-16.05 195.15-16.83Q195.46-17.60 195.46-18.59L195.46-18.59L195.46-21.80Q195.46-22.23 195.36-22.45Q195.25-22.68 195.08-22.78Q194.92-22.89 194.73-22.91Q194.55-22.93 194.39-22.93L194.39-22.93L177.63-22.93L177.63 0L172.55 0L172.55-25.45Q172.55-25.98 172.75-26.45Q172.95-26.91 173.29-27.27Q173.63-27.62 174.10-27.81Q174.57-28.01 175.11-28.01L175.11-28.01L194.39-28.01Q196.09-28.01 197.26-27.39Q198.43-26.78 199.17-25.85Q199.90-24.92 200.22-23.85Q200.54-22.77 200.54-21.84L200.54-21.84Z"/></g>
</svg>
</g></svg>